<svg xmlns="http://www.w3.org/2000/svg" viewBox="0 0 800 319"><g id="be88ff31-3a25-4c69-af1e-1aac03a5787b" data-name="icon"><path d="M86.13,238.64l-6.13-13a45.26,45.26,0,0,0,11.94-7.15q5.9-4.78,8.42-13.95a72.17,72.17,0,0,0,2.25-16.68q.38-10,.37-24.29V90.62h25.68v72.62q0,11.85.12,22.4a94,94,0,0,1-1.59,19.22A35.39,35.39,0,0,1,121,219.58a43.71,43.71,0,0,1-10.79,10.47,51.69,51.69,0,0,1-12.56,6.3A41.25,41.25,0,0,1,86.13,238.64Z"/><path d="M160.55,108a14.7,14.7,0,0,1-10.22-3.76,12.6,12.6,0,0,1-4.17-9.81,13.23,13.23,0,0,1,2.25-7.48,16.73,16.73,0,0,1,5.89-5.44,15.6,15.6,0,0,1,7.8-2q6.72,0,10.51,3.8A13.24,13.24,0,0,1,176.42,93a13.94,13.94,0,0,1-4.71,10.59A15.79,15.79,0,0,1,160.55,108Zm-11.2,104.19v-91h24.94v91Z"/><path d="M275.53,121l-60.68,64.44,1.15-5.31.32,15.78v16.19H191.87V79.49h24.45V138l-1,27.64-3.84-3.68L246.83,121Zm-51.11,50.13,16.52-16.93,37.46,57.9H250.51Z"/><path d="M302.44,213.45a31.57,31.57,0,0,1-15.21-3.52,25.25,25.25,0,0,1-10.18-9.81,28.71,28.71,0,0,1-3.64-14.64A22.93,22.93,0,0,1,278,171.17a29.89,29.89,0,0,1,12.3-9.32,59.79,59.79,0,0,1,11.66-3.44,112.33,112.33,0,0,1,12.67-1.72q6.35-.48,11.82-.49l4.17,5.16-4.17,8a61.15,61.15,0,0,0-6.62.41A63.73,63.73,0,0,0,312.7,171a34.16,34.16,0,0,0-5.68,1.76,20,20,0,0,0-5.69,3.93q-2.49,2.44-2.49,7.52,0,6.63,3.68,9.77a14.06,14.06,0,0,0,9.49,3.15,22.89,22.89,0,0,0,6-.81,31.18,31.18,0,0,0,5.27-1.93,9.56,9.56,0,0,0,3.11-2.08l4.33,5.15-3,7a39.5,39.5,0,0,1-10.1,6.14A37.16,37.16,0,0,1,302.44,213.45Zm48.9-1.31H327.71V198.57H326.4V149.5q0-7-3.68-9.12t-10.55-2.17a67.68,67.68,0,0,0-10.75.9,84.91,84.91,0,0,0-10.59,2.37,49.24,49.24,0,0,0-8.35,3.19L277.09,129a59.06,59.06,0,0,1,8.67-3.84,98.71,98.71,0,0,1,13.49-3.89,71.32,71.32,0,0,1,15.29-1.67q12.6,0,20.73,2.94a21.9,21.9,0,0,1,12.11,10q4,7,4,19.46Z"/><path d="M367.7,212.14v-91h22.65l.41,10.22a49.69,49.69,0,0,1,7.93-5.27,57,57,0,0,1,10.67-4.46,41.8,41.8,0,0,1,11.82-1.88q14.24-.33,20.94,7.56t6.7,27.69v57.16h-25V158.49c0-7.08-.93-12.05-2.78-14.88s-5.48-4.14-10.88-3.93a27.33,27.33,0,0,0-5.52.86,33.07,33.07,0,0,0-6.21,2.29,29.28,29.28,0,0,0-5.85,3.72v65.59Z"/><path d="M500.1,212.14H473.19l44-122.59h27.64l43.91,122.59H561.43l-26.9-86L530.76,112l-3.84,14.07Zm-2-25.76,3.36-18.24h55.77l3.35,18.24Z"/><path d="M593.82,212.14V90.62H604.2q8,0,15.95-.66t16.6-.65q14.07,0,24.13,4.13a31.33,31.33,0,0,1,15.49,13.29q5.45,9.15,5.44,24.12,0,20.85-12.47,32.3T633.23,174.6c-3.43,0-6.23,0-8.38-.08s-3.94-.08-5.36-.08v37.7Zm25.67-56.84q3.12.42,6.42.58t6.83.16a31.58,31.58,0,0,0,12-2.21,17.57,17.57,0,0,0,8.67-7.69q3.23-5.47,3.23-15.37,0-11.61-6-17.75t-18.24-5.72q-3.11.08-6.54.33a50.4,50.4,0,0,0-6.3.81Z"/><path d="M694.16,212.14V90.62H720V212.14Z"/></g></svg>