<svg xmlns="http://www.w3.org/2000/svg"
     viewBox="0 0 800 437">
  <defs>
    <style>
     .mal{fill: #ffffff;}
     .icon{
         fill: #d2d2d2;
         filter: drop-shadow(2px 4px 6px #0044ff);
         }
     </style>
  </defs>
  <g id="mal-search-icon-small"
     data-name="icon">
    <g class="mal"
       id="mal-icon"
       data-name="mal-small">
      <path d="M305.3,323H241.69V176.25h-.58l-49,65.36-47.8-65.36h-.65V323H80V80.29h60.35l51.72,71.3L245,80.29H305.3Z" />
      <path d="M531.91,323H468.29V246H398.8q.51,37.28,24.38,77l-51.65,34.16a232.53,232.53,0,0,1-20.28-37.53,221.21,221.21,0,0,1-13-41.06,202.17,202.17,0,0,1-4.49-42,194.83,194.83,0,0,1,4.71-42.76,166.47,166.47,0,0,1,14.51-40A134.67,134.67,0,0,1,377.47,120a121.85,121.85,0,0,1,34.64-25,139.37,139.37,0,0,1,38.48-11.72,308.89,308.89,0,0,1,46-3h31.19L542.65,135H492.74q-31,0-49,8.91t-25.1,19.92A154.07,154.07,0,0,0,405,191.34h63.25V142.45h63.62Z" />
      <path d="M636.51,268.31H720L705.12,323H572.89V80.29h63.62Z" />
    </g>
    <path class="icon"
          id="icon-search"
          data-name="icon-search"
          d="M592.61,380.6a82.53,82.53,0,0,0,44.51-13L682.56,413,709,386.56l-45.44-45.25a83.64,83.64,0,1,0-70.95,39.29Zm.19-130.36a46.56,46.56,0,1,1-46.56,46.56A46.57,46.57,0,0,1,592.8,250.24Z" />
  </g>
</svg>