<svg xmlns="http://www.w3.org/2000/svg" viewBox="0 0 800 264"><g id="f4eaa683-3aa3-4ff4-b265-3ea7fbb748ba" data-name="icon"><path d="M158.16,163.62H136.09V112.71h-.2l-17,22.67L102.3,112.71h-.23v50.91H80V79.42h20.94l17.94,24.73,18.34-24.73h20.94Z"/><path d="M196.38,185.06H175.15l9.68-26.8-22.27-56.9h23.51l9,29.47h.2l9-29.47h21.84Z"/><path d="M294.5,163.62H272.43v-26.7H248.32q.18,12.93,8.46,26.7l-17.92,11.85a80.63,80.63,0,0,1-7-13,76.89,76.89,0,0,1-4.52-14.25,69.92,69.92,0,0,1-1.56-14.58,67.47,67.47,0,0,1,1.64-14.83,57.46,57.46,0,0,1,5-13.88,46.45,46.45,0,0,1,8.5-11.7,42,42,0,0,1,12-8.67,48.4,48.4,0,0,1,13.35-4.07,107.75,107.75,0,0,1,15.95-1h10.82l5.16,19H280.91q-10.77,0-17,3.09t-8.7,6.91a52.74,52.74,0,0,0-4.72,9.55h21.94V101H294.5Z"/><path d="M337.72,101.36q8.29,0,13.19,2.52a14.4,14.4,0,0,1,7,7.71q2.07,5.19,2.07,13.68v38.35H340.17V128.16a36.17,36.17,0,0,0-.56-6.49,3.67,3.67,0,0,0-2.16-2.59,16.89,16.89,0,0,0-5.93-.91h-4.73v45.45H307V101.36Z"/><path d="M390.8,96.23H371V79.42H390.8Zm0,67.39H371V101.36H390.8Z"/><path d="M461.19,101.36q8.32,0,13.22,2.52a14.36,14.36,0,0,1,7,7.71q2.08,5.19,2.08,13.68v38.35H464.18V128.16a36.17,36.17,0,0,0-.56-6.49,3.69,3.69,0,0,0-2.16-2.59,16.89,16.89,0,0,0-5.93-.91h-3.2v45.45H433.05V118.17H421.2v45.45H401.93V101.36Z"/><path d="M539.32,163.62h-12a33.34,33.34,0,0,1-18-5.23,37.8,37.8,0,0,1-13.25-14.09,38.7,38.7,0,0,1-4.9-19q.13-8.79,3-14.35a17.83,17.83,0,0,1,9.1-8.28q6.25-2.72,16.49-2.71h4.11q23.4,0,23.4,17.21a22.4,22.4,0,0,1-3.18,11.76,35.07,35.07,0,0,1-8.08,9.24,82.87,82.87,0,0,1-11.31,7.54,55.38,55.38,0,0,0,11.75,1.13h7.82ZM521,116.74q-9.58,0-9.59,9.27a22.26,22.26,0,0,0,1.33,7.42,65,65,0,0,0,6.12-3.61,31,31,0,0,0,5.71-4.79q2.49-2.66,2.49-5.1a2.46,2.46,0,0,0-1.68-2.64A14.39,14.39,0,0,0,521,116.74Z"/><path d="M578.17,144.64h29l-5.16,19H556.11V79.42h22.06Z"/><path d="M629.94,96.23H610.16V79.42h19.78Zm0,67.39H610.16V101.36h19.78Z"/><path d="M676.21,117.64h-8.85a13.92,13.92,0,0,0-4.48.48,1.84,1.84,0,0,0-1.21,1.89c0,.65.55,1.68,1.66,3.09l8.76,11.05q6,7.44,6,14.22a15.28,15.28,0,0,1-1.93,7.52,14.59,14.59,0,0,1-5.5,5.61,15.69,15.69,0,0,1-8.15,2.12H642.39l-4.93-16.81h10.92c.32,0,.87,0,1.64.11s1.42.11,2,.11c2.13,0,3.2-.55,3.2-1.66a2.92,2.92,0,0,0-.28-1.17,8.1,8.1,0,0,0-.7-1.28c-.29-.43-.58-.84-.88-1.25s-.61-.79-.91-1.15l-8.36-10.82a42.27,42.27,0,0,1-4.54-7.06,15.77,15.77,0,0,1-1.54-7,14.55,14.55,0,0,1,1.53-6.05,14.15,14.15,0,0,1,5.28-5.79q3.75-2.48,9.89-2.48h16.59Z"/><path d="M707.12,101.36h10.41v16.28H707.12v23.71q0,5.21,5,5.46H720l-4.93,16.81h-9q-9,0-13.87-4.27t-4.9-14.81v-26.9h-4.43V101.36h4.43V89.21l19.78-5.89Z"/></g></svg>