<svg xmlns="http://www.w3.org/2000/svg"
     viewBox="0 0 800 437">
  <g id="a123c8af-5863-4f05-87ad-20bc1c339ecc"
     data-name="icon">
    <g id="ae8ca80e-64f9-4fc0-8c98-57e3f112c594"
       data-name="mal-small" style="fill:#2F52A2">
      <path d="M305.3,323H241.69V176.25h-.58l-49,65.36-47.8-65.36h-.65V323H80V80.29h60.35l51.72,71.3L245,80.29H305.3Z" />
      <path d="M531.91,323H468.29V246H398.8q.51,37.28,24.38,77l-51.65,34.16a232.53,232.53,0,0,1-20.28-37.53,221.21,221.21,0,0,1-13-41.06,202.17,202.17,0,0,1-4.49-42,194.83,194.83,0,0,1,4.71-42.76,166.47,166.47,0,0,1,14.51-40A134.67,134.67,0,0,1,377.47,120a121.85,121.85,0,0,1,34.64-25,139.37,139.37,0,0,1,38.48-11.72,308.89,308.89,0,0,1,46-3h31.19L542.65,135H492.74q-31,0-49,8.91t-25.1,19.92A154.07,154.07,0,0,0,405,191.34h63.25V142.45h63.62Z" />
      <path d="M636.51,268.31H720L705.12,323H572.89V80.29h63.62Z" />
    </g>
    <path id="b817f61f-5165-47c5-ba3e-dfef65171bae"
          data-name="icon-open"
          d="M727.78,377.78H572.22V222.22H650V200H550V400H750V300H727.78ZM672.22,200v22.22h39.89L602.89,331.44l15.67,15.67L727.78,237.89v39.89H750V200Z"
          style="fill:#505050" />
  </g>
</svg>