<svg xmlns="http://www.w3.org/2000/svg" viewBox="0 0 1051.25 264.45"><g id="feed3cba-6c6a-413c-9a2b-3dd379e7d051" data-name="icon"><path d="M157.28,163.25H135.46V112.92h-.2l-16.82,22.42L102,112.92h-.22v50.33H80V80h20.7l17.74,24.46L136.58,80h20.7Z"/><path d="M195.07,184.45h-21l9.58-26.5-22-56.25h23.24l8.88,29.13h.2l8.86-29.13H224.4Z"/><path d="M292.08,163.25H270.26v-26.4H246.42q.18,12.79,8.36,26.4L237.07,175a79.29,79.29,0,0,1-7-12.88A74.82,74.82,0,0,1,225.65,148a69,69,0,0,1-1.55-14.42,66.6,66.6,0,0,1,1.62-14.66,57.24,57.24,0,0,1,5-13.73,46,46,0,0,1,8.41-11.56A41.69,41.69,0,0,1,251,85.06a47.67,47.67,0,0,1,13.19-4A105.44,105.44,0,0,1,280,80h10.7l5.1,18.76H278.64q-10.65,0-16.81,3.06t-8.6,6.83a52.83,52.83,0,0,0-4.67,9.44h21.7V101.32h21.82Z"/><path d="M334.81,101.7q8.2,0,13,2.48a14.28,14.28,0,0,1,6.89,7.63q2,5.14,2.05,13.52v37.92H337.23V128.19a35.5,35.5,0,0,0-.56-6.42,3.65,3.65,0,0,0-2.12-2.56,16.92,16.92,0,0,0-5.87-.89H324v44.93H304.44V101.7Z"/><path d="M387.29,96.62H367.74V80h19.55Zm0,66.63H367.74V101.7h19.55Z"/><path d="M456.88,101.7q8.24,0,13.08,2.48a14.28,14.28,0,0,1,6.89,7.63q2.06,5.14,2,13.52v37.92H459.84V128.19a35.5,35.5,0,0,0-.56-6.42,3.64,3.64,0,0,0-2.13-2.56,16.83,16.83,0,0,0-5.87-.89h-3.16v44.93H429.07V118.32H417.35v44.93H398.29V101.7Z"/><path d="M534.13,163.25H522.32a33,33,0,0,1-17.84-5.16,37.37,37.37,0,0,1-13.1-13.94,38.29,38.29,0,0,1-4.84-18.82q.12-8.68,2.93-14.18a17.59,17.59,0,0,1,9-8.18q6.18-2.7,16.31-2.69h4.05q23.14,0,23.14,17a22.13,22.13,0,0,1-3.15,11.63,34.39,34.39,0,0,1-8,9.13,80.8,80.8,0,0,1-11.19,7.45,54.28,54.28,0,0,0,11.62,1.12H539ZM516,116.9q-9.48,0-9.48,9.17a22.09,22.09,0,0,0,1.32,7.34,65.66,65.66,0,0,0,6-3.57,31.13,31.13,0,0,0,5.65-4.74c1.64-1.75,2.46-3.44,2.46-5a2.44,2.44,0,0,0-1.66-2.62A14.43,14.43,0,0,0,516,116.9Z"/><path d="M597.2,98.76H578.87a25,25,0,0,0-6,.54c-1.33.35-2,1.09-2,2.22a4,4,0,0,0,.34,1.63,7.12,7.12,0,0,0,.87,1.5,17.51,17.51,0,0,0,1.42,1.66c.59.62.9,1,.93,1l15.18,16.82a64.33,64.33,0,0,1,7.65,9.9,19.08,19.08,0,0,1,2.65,10,21.19,21.19,0,0,1-2,8.77,17,17,0,0,1-7,7.43q-5,3-13.43,3.05H552.09L547,144.49h19.76a24.38,24.38,0,0,0,6-.55c1.33-.36,2-1.09,2-2.18a4.5,4.5,0,0,0-.86-2.72,35.28,35.28,0,0,0-2.7-3.1l-14.76-16.7q-3.39-3.88-5.41-6.61a27.32,27.32,0,0,1-3.41-6.14,19.14,19.14,0,0,1-1.38-7.23,21.19,21.19,0,0,1,2-8.77,17,17,0,0,1,7-7.44q5-3,13.45-3h23.43Z"/><path d="M650.32,163.25H638.51a33,33,0,0,1-17.84-5.16,37.37,37.37,0,0,1-13.1-13.94,38.29,38.29,0,0,1-4.84-18.82q.12-8.68,2.93-14.18a17.59,17.59,0,0,1,9-8.18q6.18-2.7,16.31-2.69h4q23.15,0,23.14,17A22.13,22.13,0,0,1,655,128.93a34.39,34.39,0,0,1-8,9.13,80.8,80.8,0,0,1-11.19,7.45,54.28,54.28,0,0,0,11.62,1.12h7.74ZM632.19,116.9q-9.48,0-9.48,9.17a22.09,22.09,0,0,0,1.32,7.34,65.66,65.66,0,0,0,6-3.57,31.13,31.13,0,0,0,5.65-4.74c1.64-1.75,2.46-3.44,2.46-5a2.44,2.44,0,0,0-1.66-2.62A14.43,14.43,0,0,0,632.19,116.9Z"/><path d="M717.28,163.25H697.62a33.06,33.06,0,0,1-17.84-5.16,37.45,37.45,0,0,1-13.1-13.94,38.39,38.39,0,0,1-4.84-18.82q0-10.32,6-17t19.59-6.65h29.86Zm-19.56-44.93H691.4a14.19,14.19,0,0,0-6.75,1.49c-1.89,1-2.83,3.32-2.83,7a21.09,21.09,0,0,0,4.48,13,16.56,16.56,0,0,0,11.42,6.82Z"/><path d="M747.65,101.7v3.56q5.1-4.83,13.66-5v17.64q-9.12.35-12.83,6.64v38.69H728.92V101.7Z"/><path d="M808.59,118.32H795.35a14.26,14.26,0,0,0-6.76,1.49c-1.88,1-2.82,3.32-2.82,7a22.25,22.25,0,0,0,8.42,16.86,13.69,13.69,0,0,0,8.5,3h6.91l-4.87,16.62h-3.16a33.06,33.06,0,0,1-17.84-5.16,37.45,37.45,0,0,1-13.1-13.94,38.29,38.29,0,0,1-4.84-18.82q0-10.32,6-17t19.6-6.65h12.34Z"/><path d="M835.6,101.7h10.8q8.22,0,13.05,2.48a14.2,14.2,0,0,1,6.89,7.63q2.05,5.14,2.06,13.52v37.92H848.84V128.19a35.5,35.5,0,0,0-.56-6.42,3.64,3.64,0,0,0-2.13-2.56,16.83,16.83,0,0,0-5.87-.89H835.6v44.93H816.05V80H835.6Z"/><path d="M923.46,163.25H911.64a33.06,33.06,0,0,1-17.84-5.16,37.45,37.45,0,0,1-13.1-13.94,38.29,38.29,0,0,1-4.84-18.82q.12-8.68,2.94-14.18a17.53,17.53,0,0,1,9-8.18q6.18-2.7,16.31-2.69h4q23.15,0,23.14,17a22.22,22.22,0,0,1-3.14,11.63,34.43,34.43,0,0,1-8,9.13A80.67,80.67,0,0,1,909,145.51a54.22,54.22,0,0,0,11.62,1.12h7.73ZM905.32,116.9q-9.48,0-9.48,9.17a22.09,22.09,0,0,0,1.32,7.34,64.35,64.35,0,0,0,6-3.57,30.8,30.8,0,0,0,5.65-4.74c1.64-1.75,2.46-3.44,2.46-5a2.44,2.44,0,0,0-1.66-2.62A14.39,14.39,0,0,0,905.32,116.9Z"/><path d="M957.59,101.7v3.56q5.1-4.83,13.66-5v17.64q-9.13.35-12.84,6.64v38.69H938.86V101.7Z"/></g></svg>