<svg xmlns="http://www.w3.org/2000/svg" viewBox="0 0 706 800"><g id="f2d06fc6-6aa9-4762-bd57-10b97d1b980b" data-name="icon"><g id="be2e3f38-5dcb-44f2-9e12-870ac94dc78b" data-name="vuejs-logo"><path id="b7400e4c-b73b-49fc-8ab1-cbeb820a0232" data-name="vuejs" d="M194.58,567.86a9.52,9.52,0,0,0-5.26,1.57,6.38,6.38,0,0,0-3,5.19,3.6,3.6,0,0,0,.42,2.19l-.16-.38L218.47,680a7.31,7.31,0,0,0,3.48,4.28,10,10,0,0,0,4.87,1.18c3.49,0,7.32-1.67,8.5-5.42h0l31.89-104v-.38c0,.52.16.22.16-.91a6.39,6.39,0,0,0-3.12-5.2,9.83,9.83,0,0,0-5.49-1.72,6.55,6.55,0,0,0-6.18,4.3l0,0-25.74,85.93L201,572.34a5.85,5.85,0,0,0-2.62-3.53,7.29,7.29,0,0,0-3.77-.95Zm254.28,5.34c-5.08,0-9.37,3.89-9.37,8.76a9.18,9.18,0,0,0,9.37,8.9,8.83,8.83,0,1,0,0-17.66ZM374,606.36c-17.38,0-31.69,13.9-31.69,30.61v17.12A29.84,29.84,0,0,0,352.38,677c6.33,5.54,15.16,8.6,25.29,8.6a39,39,0,0,0,17.94-4,19,19,0,0,0,5.22-3.8,7,7,0,0,0,2.25-4.82,7.28,7.28,0,0,0-1.76-4.62,6.47,6.47,0,0,0-5-2.6,7.25,7.25,0,0,0-3.88,1.32c-1.06.65-2.06,1.37-3.26,2.06-2.4,1.38-5.58,2.73-11.2,2.73-6.25,0-11.46-1.79-15.05-4.78a15.61,15.61,0,0,1-5.68-12.6v-3.17h32.05c3.42,0,7.22,0,10.5-2.09s5.29-6.27,5.29-12.62c0-17.57-14.67-30.31-31.07-30.31Zm120.45,0c-9.23,0-16,3-20.38,7.48a22.58,22.58,0,0,0-6.25,15.8c0,7,2.81,12,6.84,15.15s9,4.8,13.8,6.24,9.33,2.71,12.39,4.6,4.71,3.93,4.71,8.24a6.68,6.68,0,0,1-2.57,5.66c-1.89,1.51-5.23,2.7-10.68,2.7-6.44,0-10-1.59-12.66-3.21-1.31-.81-2.37-1.66-3.45-2.41a6.91,6.91,0,0,0-4-1.56,5.62,5.62,0,0,0-4.54,2.6,7.67,7.67,0,0,0-1.47,4.47,8,8,0,0,0,2.37,5.33,19.63,19.63,0,0,0,5.58,4.11,40.74,40.74,0,0,0,18.54,4.05c8.2,0,14.94-2,19.71-5.88a20.48,20.48,0,0,0,7.38-16.32c0-7.52-2.74-12.92-6.76-16.49s-9.12-5.42-14-6.9-9.49-2.64-12.61-4.26-4.58-3.13-4.58-6.58a8.68,8.68,0,0,1,2.64-6.07c1.9-1.85,5-3.35,10.15-3.35a24.49,24.49,0,0,1,9.62,1.94c1.22.5,2.29,1,3.3,1.46a7.61,7.61,0,0,0,3.28.87,6.17,6.17,0,0,0,5.05-3.08,8.09,8.09,0,0,0,1.56-4.61,6,6,0,0,0-2.74-4.69,20.12,20.12,0,0,0-5.34-2.76,44.85,44.85,0,0,0-14.89-2.53ZM276,607.29c-4,0-7.53,2.53-7.53,6.3V654.4c0,16.55,14.08,31.21,31.53,31.21,17.16,0,31.53-14.49,31.53-31.21v-41a5.85,5.85,0,0,0-2.4-4.56,8.16,8.16,0,0,0-5-1.59,8.48,8.48,0,0,0-5,1.56,5.76,5.76,0,0,0-2.51,4.59v41c0,8.67-7.57,17.07-16.62,17.07s-16.61-8.55-16.61-17.07V613.59a5.8,5.8,0,0,0-2.4-4.53,7.86,7.86,0,0,0-5-1.78Zm172.83,0a8.22,8.22,0,0,0-5,1.53,5.9,5.9,0,0,0-2.34,4.62v75.19c0,5.64-.4,10.37-1.64,13.24S437.15,706,433,706a7,7,0,0,0-6.77,7.08,6.77,6.77,0,0,0,1.83,4.74,7.75,7.75,0,0,0,5.7,2.18c7.94,0,14-3.52,17.63-9.24s5-13.37,5-22.13V613.44a5.85,5.85,0,0,0-2.54-4.67,8.61,8.61,0,0,0-5-1.49Zm-75,12.31a16.71,16.71,0,0,1,16.62,16.76,6,6,0,0,1-.2,1.8c-.09.27-.09.24-.22.33a12.9,12.9,0,0,1-4.74.57H357.24v-3.31a16.4,16.4,0,0,1,16.61-16.15Zm47.37,46.67a9.6,9.6,0,1,0,9.37,9.67A9.6,9.6,0,0,0,421.22,666.27Z" style="fill:#35495e"/><g id="edab7317-30af-48da-9b21-3136d3ab1cbe" data-name="logo"><path d="M79.6,80l213,.68,60.52,104.53L414.74,80.68,626.4,80,353.71,550.51ZM622,82.72,518,82.81,353.62,365,189.35,82.81,83.63,82.73l270,460.89Zm-107.43,0-97.17.71-64.3,105.29L289.85,83.4l-97.38-.71L353.65,358.12Zm-324-.73,98.26,0,64.23,106.62L417.15,82l98.18,0L353.64,362.45" style="fill:none"/><path d="M190.66,82l98.26,0,64.23,106.62L417.15,82l98.18,0L353.64,362.45Z" style="fill:#35495e"/><path d="M83.49,82.71,190.57,82l163,280.48L515.24,82l107.27.11-269,461.62Z" style="fill:#41b883"/></g></g></g></svg>